<svg xmlns="http://www.w3.org/2000/svg" width="302" height="80" viewBox="0 0 302 80">
    <g fill="none" fill-rule="evenodd">
        <path fill="#345A99" d="M100.128 47.288c-5.256 0-8.712-3.744-8.712-8.64V38.6c0-4.704 3.6-8.688 8.664-8.688 2.52 0 4.2.6 5.736 1.704.288.216.6.624.6 1.2a1.47 1.47 0 0 1-1.464 1.464c-.384 0-.672-.168-.912-.336-1.08-.792-2.256-1.32-4.08-1.32-3.096 0-5.448 2.712-5.448 5.928v.048c0 3.456 2.28 6 5.712 6 1.584 0 3.024-.504 4.056-1.272v-3.144h-3.312c-.72 0-1.32-.552-1.32-1.272s.6-1.296 1.32-1.296h4.68c.84 0 1.488.648 1.488 1.488v4.488c0 .84-.336 1.44-1.032 1.872a10.699 10.699 0 0 1-5.976 1.824zm14.4-.024c-2.376 0-4.488-1.368-4.488-3.912v-.048c0-2.736 2.136-4.08 5.232-4.08 1.416 0 2.424.216 3.408.528v-.312c0-1.8-1.104-2.76-3.144-2.76-1.104 0-2.016.192-2.808.504a1.63 1.63 0 0 1-.456.072 1.209 1.209 0 0 1-1.224-1.2c0-.528.36-.984.792-1.152 1.2-.456 2.424-.744 4.08-.744 1.896 0 3.312.504 4.2 1.416.936.912 1.368 2.256 1.368 3.912v6.24c0 .792-.624 1.392-1.416 1.392-.84 0-1.416-.576-1.416-1.224v-.48c-.864 1.032-2.184 1.848-4.128 1.848zm.816-2.112c1.92 0 3.384-1.104 3.384-2.712v-.864c-.744-.288-1.728-.504-2.88-.504-1.872 0-2.976.792-2.976 2.112v.048c0 1.224 1.08 1.92 2.472 1.92zm9.624.528V35.648c0-.816.624-1.464 1.44-1.464s1.464.648 1.464 1.464v.6c.816-1.128 1.92-2.184 3.864-2.184 1.824 0 3.12.888 3.792 2.232 1.008-1.344 2.352-2.232 4.272-2.232 2.76 0 4.44 1.752 4.44 4.848v6.768c0 .816-.624 1.44-1.44 1.44s-1.464-.624-1.464-1.44V39.8c0-2.016-.936-3.096-2.568-3.096-1.584 0-2.712 1.104-2.712 3.144v5.832c0 .816-.648 1.44-1.44 1.44-.816 0-1.464-.624-1.464-1.44v-5.904c0-1.968-.96-3.072-2.568-3.072s-2.712 1.2-2.712 3.144v5.832c0 .816-.648 1.44-1.464 1.44-.792 0-1.44-.624-1.44-1.44zm22.8 0V35.648c0-.816.624-1.464 1.44-1.464s1.464.648 1.464 1.464v.6c.816-1.128 1.92-2.184 3.864-2.184 1.824 0 3.12.888 3.792 2.232 1.008-1.344 2.352-2.232 4.272-2.232 2.76 0 4.44 1.752 4.44 4.848v6.768c0 .816-.624 1.44-1.44 1.44s-1.464-.624-1.464-1.44V39.8c0-2.016-.936-3.096-2.568-3.096-1.584 0-2.712 1.104-2.712 3.144v5.832c0 .816-.648 1.44-1.44 1.44-.816 0-1.464-.624-1.464-1.44v-5.904c0-1.968-.96-3.072-2.568-3.072s-2.712 1.2-2.712 3.144v5.832c0 .816-.648 1.44-1.464 1.44-.792 0-1.44-.624-1.44-1.44zm26.448 1.584c-2.376 0-4.488-1.368-4.488-3.912v-.048c0-2.736 2.136-4.08 5.232-4.08 1.416 0 2.424.216 3.408.528v-.312c0-1.8-1.104-2.76-3.144-2.76-1.104 0-2.016.192-2.808.504a1.63 1.63 0 0 1-.456.072 1.209 1.209 0 0 1-1.224-1.2c0-.528.36-.984.792-1.152 1.2-.456 2.424-.744 4.08-.744 1.896 0 3.312.504 4.2 1.416.936.912 1.368 2.256 1.368 3.912v6.24c0 .792-.624 1.392-1.416 1.392-.84 0-1.416-.576-1.416-1.224v-.48c-.864 1.032-2.184 1.848-4.128 1.848zm.816-2.112c1.92 0 3.384-1.104 3.384-2.712v-.864c-.744-.288-1.728-.504-2.88-.504-1.872 0-2.976.792-2.976 2.112v.048c0 1.224 1.08 1.92 2.472 1.92z"/>
        <path fill="#27AAE2" d="M192.496 46.496V30.752c0-.336.288-.624.624-.624h.192c.264 0 .456.144.624.36l11.328 14.376v-14.16c0-.336.264-.6.6-.6.336 0 .6.264.6.6v15.84a.512.512 0 0 1-.504.528h-.096c-.24 0-.432-.168-.624-.408l-11.544-14.64v14.472c0 .336-.264.6-.6.6a.594.594 0 0 1-.6-.6zm19.104-6.192h8.904c-.168-2.472-1.584-4.752-4.392-4.752-2.424 0-4.296 2.04-4.512 4.752zm9.528 4.992c-1.2 1.2-2.568 1.992-4.776 1.992-3.216 0-6-2.568-6-6.384v-.048c0-3.552 2.496-6.384 5.808-6.384 3.432 0 5.616 2.832 5.616 6.336 0 .288-.288.552-.576.552h-9.6c.216 3.048 2.4 4.824 4.8 4.824 1.752 0 2.976-.72 3.96-1.68a.522.522 0 0 1 .384-.168c.312 0 .576.24.576.552 0 .12-.048.264-.192.408zm8.16 1.92c-1.896 0-3.432-1.032-3.432-3.36V35.84h-1.32a.575.575 0 0 1-.552-.552c0-.288.264-.528.552-.528h1.32v-3.408c0-.336.24-.6.576-.6.336 0 .6.264.6.6v3.408h3.84c.288 0 .552.264.552.552 0 .288-.264.528-.552.528h-3.84v7.896c0 1.752 1.032 2.376 2.448 2.376.84 0 1.224-.24 1.392-.24a.55.55 0 0 1 .528.528c0 .24-.144.408-.384.504a5.053 5.053 0 0 1-1.728.312zm9.432-.048c-.288 0-.528-.192-.648-.528l-4.008-11.016a1.13 1.13 0 0 1-.096-.384c0-.312.288-.576.624-.576s.528.216.624.504l3.552 10.344 3.552-10.392c.096-.264.264-.456.576-.456h.048c.336 0 .504.192.6.456l3.552 10.392 3.576-10.392c.072-.24.24-.456.576-.456.336 0 .6.264.6.552 0 .144-.048.288-.096.408l-4.008 11.016c-.12.336-.36.528-.648.528h-.048c-.312 0-.528-.192-.648-.552l-3.48-10.008-3.504 10.008c-.12.36-.336.552-.648.552h-.048zm21.576.12c-3.624 0-6.264-2.928-6.264-6.36v-.048c0-3.432 2.664-6.408 6.312-6.408 3.624 0 6.264 2.928 6.264 6.36v.048c0 3.432-2.664 6.408-6.312 6.408zm.048-1.104c2.904 0 4.992-2.376 4.992-5.256v-.048c0-2.952-2.208-5.304-5.04-5.304-2.904 0-4.992 2.376-4.992 5.256v.048c0 2.952 2.208 5.304 5.04 5.304zm9.888.312V35.264c0-.336.24-.6.576-.6.336 0 .6.24.6.6v2.976c1.056-2.376 3.192-3.672 4.92-3.672.36 0 .624.288.624.648a.64.64 0 0 1-.624.648c-2.592.24-4.92 2.184-4.92 6.12v4.512c0 .336-.24.6-.576.6a.58.58 0 0 1-.6-.6zm9.6 0V29.984c0-.336.24-.6.576-.6.336 0 .6.264.6.6v12.624l7.512-7.776c.12-.12.24-.168.408-.168.312 0 .552.24.552.552 0 .168-.048.264-.192.408l-4.488 4.56 4.8 5.928c.12.144.168.264.168.432 0 .336-.24.552-.576.552-.216 0-.336-.072-.504-.264l-4.704-5.808-2.976 3v2.472c0 .36-.24.6-.576.6a.58.58 0 0 1-.6-.6zm17.4.744c-1.656 0-3.504-.648-4.752-1.584a.635.635 0 0 1-.216-.456c0-.312.264-.576.576-.576.144 0 .288.048.384.12 1.272.912 2.616 1.392 4.08 1.392 1.656 0 2.952-.912 2.952-2.328v-.048c0-1.44-1.536-1.968-3.24-2.448-1.992-.576-4.2-1.176-4.2-3.36v-.048c0-1.968 1.656-3.384 4.032-3.384 1.32 0 2.784.432 3.96 1.104.144.096.312.264.312.528a.584.584 0 0 1-.576.576.621.621 0 0 1-.336-.096c-1.056-.624-2.232-1.008-3.408-1.008-1.68 0-2.784.912-2.784 2.136v.048c0 1.368 1.656 1.872 3.408 2.376 1.968.552 4.032 1.272 4.032 3.432v.048c0 2.184-1.872 3.576-4.224 3.576z"/>
        <g fill="#BFDFEC">
            <circle cx="34.643" cy=".714" r="1"/>
            <circle cx="27.857" cy="4.643" r="1"/>
            <circle cx="21.071" cy="8.571" r="1"/>
            <circle cx="14.286" cy="12.5" r="1"/>
            <circle cx="7.5" cy="16.429" r="1"/>
            <circle cx="34.643" cy="8.571" r="1"/>
            <circle cx="27.857" cy="12.5" r="1"/>
            <circle cx="21.071" cy="16.429" r="1"/>
            <circle cx="14.286" cy="20.357" r="1"/>
            <circle cx="7.5" cy="24.286" r="1"/>
            <circle cx="34.643" cy="16.429" r="1"/>
            <circle cx="27.857" cy="19.286" r="1"/>
            <circle cx="7.5" cy="32.143" r="1"/>
            <circle cx="34.643" cy="23.571" r="1"/>
            <circle cx="34.643" cy="30.357" r="1"/>
            <circle cx="7.5" cy="40" r="1"/>
            <circle cx="21.071" cy="40" r="1"/>
            <circle cx="14.286" cy="43.929" r="1"/>
            <circle cx="7.5" cy="47.857" r="1"/>
            <circle cx="28.214" cy="43.929" r="1"/>
            <circle cx="21.071" cy="47.857" r="1"/>
            <circle cx="14.286" cy="51.786" r="1"/>
            <circle cx="21.071" cy="55.714" r="1"/>
            <circle cx="21.071" cy="63.571" r="1"/>
            <circle cx="14.286" cy="59.643" r="1"/>
            <circle cx="7.5" cy="55.714" r="1"/>
            <circle cx="61.786" cy="63.571" r="1"/>
            <circle cx="55" cy="67.5" r="1"/>
            <circle cx="48.214" cy="71.429" r="1"/>
            <circle cx="41.429" cy="75.357" r="1"/>
            <circle cx="41.429" cy="4.643" r="1" transform="matrix(-1 0 0 1 82.857 0)"/>
            <circle cx="48.214" cy="8.571" r="1" transform="matrix(-1 0 0 1 96.429 0)"/>
            <circle cx="55" cy="12.5" r="1" transform="matrix(-1 0 0 1 110 0)"/>
            <circle cx="61.786" cy="16.429" r="1" transform="matrix(-1 0 0 1 123.571 0)"/>
            <circle cx="41.429" cy="12.5" r="1" transform="matrix(-1 0 0 1 82.857 0)"/>
            <circle cx="55" cy="20.357" r="1" transform="matrix(-1 0 0 1 110 0)"/>
            <circle cx="61.786" cy="24.286" r="1" transform="matrix(-1 0 0 1 123.571 0)"/>
            <circle cx="55" cy="28.214" r="1" transform="matrix(-1 0 0 1 110 0)"/>
            <circle cx="61.786" cy="32.143" r="1" transform="matrix(-1 0 0 1 123.571 0)"/>
            <circle cx="48.214" cy="32.143" r="1" transform="matrix(-1 0 0 1 96.429 0)"/>
            <circle cx="55" cy="36.071" r="1" transform="matrix(-1 0 0 1 110 0)"/>
            <circle cx="61.786" cy="40" r="1" transform="matrix(-1 0 0 1 123.571 0)"/>
            <circle cx="48.214" cy="40" r="1" transform="matrix(-1 0 0 1 96.429 0)"/>
            <circle cx="55" cy="43.929" r="1" transform="matrix(-1 0 0 1 110 0)"/>
            <circle cx="61.786" cy="47.857" r="1" transform="matrix(-1 0 0 1 123.571 0)"/>
            <circle cx="41.071" cy="43.929" r="1" transform="matrix(-1 0 0 1 82.143 0)"/>
            <circle cx="26.071" cy="51.786" r="1"/>
            <circle cx="43.214" cy="51.786" r="1" transform="matrix(-1 0 0 1 86.429 0)"/>
            <circle cx="48.214" cy="47.857" r="1" transform="matrix(-1 0 0 1 96.429 0)"/>
            <circle cx="48.214" cy="55.714" r="1" transform="matrix(-1 0 0 1 96.429 0)"/>
            <circle cx="48.214" cy="63.571" r="1" transform="matrix(-1 0 0 1 96.429 0)"/>
            <circle cx="55" cy="51.786" r="1" transform="matrix(-1 0 0 1 110 0)"/>
            <circle cx="55" cy="59.643" r="1" transform="matrix(-1 0 0 1 110 0)"/>
            <circle cx="61.786" cy="55.714" r="1" transform="matrix(-1 0 0 1 123.571 0)"/>
            <circle cx="7.5" cy="63.571" r="1" transform="matrix(-1 0 0 1 15 0)"/>
            <circle cx="14.286" cy="67.5" r="1" transform="matrix(-1 0 0 1 28.571 0)"/>
            <circle cx="21.071" cy="71.429" r="1" transform="matrix(-1 0 0 1 42.143 0)"/>
            <circle cx="27.857" cy="75.357" r="1" transform="matrix(-1 0 0 1 55.714 0)"/>
            <circle cx="41.429" cy="67.5" r="1"/>
            <circle cx="27.857" cy="67.5" r="1" transform="matrix(-1 0 0 1 55.714 0)"/>
            <circle cx="34.643" cy="79.286" r="1"/>
            <circle cx=".714" cy="20.357" r="1"/>
            <circle cx=".714" cy="28.214" r="1"/>
            <circle cx="68.571" cy="28.214" r="1"/>
            <circle cx=".714" cy="36.071" r="1"/>
            <circle cx="68.571" cy="36.071" r="1"/>
            <circle cx=".714" cy="43.929" r="1"/>
            <circle cx="68.571" cy="43.929" r="1"/>
            <circle cx=".714" cy="51.786" r="1"/>
            <circle cx="68.571" cy="51.786" r="1"/>
            <circle cx=".714" cy="59.643" r="1"/>
            <circle cx="68.571" cy="20.357" r="1"/>
            <circle cx="68.571" cy="59.643" r="1"/>
        </g>
        <g fill="#27AAE2" transform="translate(12.143 13.929)">
            <circle cx="4.286" cy="18.214" r="4.286"/>
            <circle cx="8.214" cy="11.071" r="2.143"/>
            <circle cx="13.929" cy="12.143" r="2.143"/>
            <circle cx="17.143" cy="18.214" r="2.143"/>
            <circle cx="20" cy="24.286" r="2.143"/>
            <circle cx="22.5" cy="30.357" r="2.143"/>
            <circle cx="24.643" cy="36.429" r="2.143"/>
            <circle cx="25.357" cy="42.5" r="2.143"/>
            <circle cx="25.714" cy="48.571" r="2.143"/>
            <circle cx="22.5" cy="54.643" r="2.143"/>
            <circle cx="19.286" cy="48.571" r="2.143"/>
            <circle cx="19.643" cy="42.5" r="2.143"/>
            <circle cx="20.357" cy="36.429" r="2.143"/>
            <circle cx="25" cy="24.286" r="2.143"/>
            <circle cx="27.857" cy="18.214" r="2.143"/>
            <path d="M31.071 14.286a2.143 2.143 0 1 0 0-4.286 2.143 2.143 0 0 0 0 4.286zM34.643 6.429a2.143 2.143 0 1 0 0-4.286 2.143 2.143 0 0 0 0 4.286zm0 2.142a4.286 4.286 0 1 1 0-8.571 4.286 4.286 0 0 1 0 8.571z"/>
        </g>
    </g>
</svg>
