<svg xmlns="http://www.w3.org/2000/svg" width="189" height="50" viewBox="0 0 189 50">
    <g fill="#FFF" fill-rule="evenodd">
        <path d="M62.718 29.555c-3.292 0-5.457-2.34-5.457-5.4v-.03c0-2.94 2.255-5.43 5.427-5.43 1.579 0 2.63.375 3.593 1.065.18.135.376.39.376.75a.92.92 0 0 1-.917.915c-.24 0-.421-.105-.571-.21-.677-.495-1.414-.825-2.556-.825-1.94 0-3.413 1.695-3.413 3.705v.03c0 2.16 1.429 3.75 3.578 3.75.992 0 1.894-.315 2.54-.795v-1.965h-2.074c-.45 0-.827-.345-.827-.795 0-.45.376-.81.827-.81h2.932c.526 0 .932.405.932.93v2.805c0 .525-.21.9-.647 1.17a6.712 6.712 0 0 1-3.743 1.14zm9.02-.015c-1.488 0-2.811-.855-2.811-2.445v-.03c0-1.71 1.338-2.55 3.277-2.55.887 0 1.518.135 2.135.33v-.195c0-1.125-.692-1.725-1.97-1.725-.691 0-1.262.12-1.758.315-.106.03-.196.045-.286.045a.756.756 0 0 1-.767-.75c0-.33.226-.615.496-.72a6.817 6.817 0 0 1 2.556-.465c1.188 0 2.075.315 2.63.885.587.57.858 1.41.858 2.445v3.9c0 .495-.391.87-.887.87-.526 0-.887-.36-.887-.765v-.3c-.541.645-1.368 1.155-2.586 1.155zm.511-1.32c1.203 0 2.12-.69 2.12-1.695v-.54a5.053 5.053 0 0 0-1.804-.315c-1.173 0-1.864.495-1.864 1.32v.03c0 .765.676 1.2 1.548 1.2zm6.028.33v-6.27c0-.51.391-.915.902-.915a.91.91 0 0 1 .917.915v.375c.512-.705 1.203-1.365 2.42-1.365 1.143 0 1.955.555 2.376 1.395.631-.84 1.473-1.395 2.676-1.395 1.729 0 2.781 1.095 2.781 3.03v4.23c0 .51-.39.9-.902.9a.898.898 0 0 1-.917-.9v-3.675c0-1.26-.586-1.935-1.609-1.935-.992 0-1.698.69-1.698 1.965v3.645c0 .51-.406.9-.902.9a.898.898 0 0 1-.917-.9v-3.69c0-1.23-.602-1.92-1.609-1.92-1.007 0-1.699.75-1.699 1.965v3.645c0 .51-.405.9-.917.9a.894.894 0 0 1-.902-.9zm14.282 0v-6.27c0-.51.39-.915.902-.915a.91.91 0 0 1 .917.915v.375c.511-.705 1.203-1.365 2.42-1.365 1.143 0 1.955.555 2.375 1.395.632-.84 1.474-1.395 2.676-1.395 1.73 0 2.781 1.095 2.781 3.03v4.23c0 .51-.39.9-.902.9a.898.898 0 0 1-.917-.9v-3.675c0-1.26-.586-1.935-1.608-1.935-.992 0-1.699.69-1.699 1.965v3.645c0 .51-.406.9-.902.9a.898.898 0 0 1-.917-.9v-3.69c0-1.23-.601-1.92-1.608-1.92-1.008 0-1.7.75-1.7 1.965v3.645c0 .51-.405.9-.916.9a.894.894 0 0 1-.902-.9zm16.566.99c-1.488 0-2.81-.855-2.81-2.445v-.03c0-1.71 1.337-2.55 3.276-2.55.887 0 1.519.135 2.135.33v-.195c0-1.125-.691-1.725-1.97-1.725-.69 0-1.262.12-1.758.315-.105.03-.196.045-.286.045a.756.756 0 0 1-.766-.75c0-.33.225-.615.496-.72a6.817 6.817 0 0 1 2.555-.465c1.188 0 2.075.315 2.631.885.586.57.857 1.41.857 2.445v3.9c0 .495-.39.87-.887.87-.526 0-.887-.36-.887-.765v-.3c-.541.645-1.368 1.155-2.586 1.155zm.511-1.32c1.203 0 2.12-.69 2.12-1.695v-.54a5.053 5.053 0 0 0-1.804-.315c-1.172 0-1.864.495-1.864 1.32v.03c0 .765.677 1.2 1.548 1.2zm10.96.84v-9.84c0-.21.18-.39.39-.39h.12c.166 0 .286.09.392.225l7.095 8.985v-8.85c0-.21.166-.375.376-.375s.376.165.376.375v9.9a.32.32 0 0 1-.316.33h-.06c-.15 0-.27-.105-.39-.255l-7.232-9.15v9.045c0 .21-.165.375-.376.375a.372.372 0 0 1-.375-.375zm11.966-3.87h5.577c-.105-1.545-.992-2.97-2.75-2.97-1.52 0-2.692 1.275-2.827 2.97zm5.968 3.12c-.752.75-1.608 1.245-2.991 1.245-2.015 0-3.759-1.605-3.759-3.99v-.03c0-2.22 1.564-3.99 3.638-3.99 2.15 0 3.518 1.77 3.518 3.96 0 .18-.18.345-.36.345h-6.014c.135 1.905 1.503 3.015 3.007 3.015 1.097 0 1.864-.45 2.48-1.05a.353.353 0 0 1 .601.24.36.36 0 0 1-.12.255zm5.111 1.2c-1.187 0-2.15-.645-2.15-2.1V22.4h-.826a.36.36 0 0 1-.346-.345c0-.18.165-.33.346-.33h.827v-2.13c0-.21.15-.375.36-.375s.376.165.376.375v2.13h2.406a.36.36 0 0 1 .345.345c0 .18-.165.33-.345.33h-2.406v4.935c0 1.095.647 1.485 1.534 1.485.526 0 .766-.15.872-.15.165 0 .33.15.33.33 0 .15-.09.255-.24.315-.3.105-.647.195-1.083.195zm5.908-.03c-.18 0-.33-.12-.405-.33l-2.511-6.885a.705.705 0 0 1-.06-.24c0-.195.18-.36.39-.36.211 0 .331.135.392.315l2.224 6.465 2.225-6.495c.06-.165.166-.285.361-.285h.03c.21 0 .316.12.376.285l2.225 6.495 2.24-6.495c.045-.15.15-.285.36-.285.211 0 .377.165.377.345 0 .09-.03.18-.06.255l-2.511 6.885c-.075.21-.226.33-.406.33h-.03c-.196 0-.33-.12-.406-.345l-2.18-6.255-2.195 6.255c-.075.225-.21.345-.406.345h-.03zm13.515.075c-2.27 0-3.923-1.83-3.923-3.975v-.03c0-2.145 1.668-4.005 3.953-4.005 2.27 0 3.924 1.83 3.924 3.975v.03c0 2.145-1.669 4.005-3.954 4.005zm.03-.69c1.82 0 3.127-1.485 3.127-3.285v-.03c0-1.845-1.383-3.315-3.157-3.315-1.819 0-3.127 1.485-3.127 3.285v.03c0 1.845 1.383 3.315 3.157 3.315zm6.194.195v-7.02c0-.21.15-.375.36-.375.211 0 .377.15.377.375v1.86c.661-1.485 1.999-2.295 3.081-2.295.226 0 .391.18.391.405a.4.4 0 0 1-.39.405c-1.624.15-3.082 1.365-3.082 3.825v2.82c0 .21-.15.375-.361.375a.363.363 0 0 1-.376-.375zm6.013 0V18.74c0-.21.15-.375.36-.375.211 0 .377.165.377.375v7.89l4.705-4.86a.33.33 0 0 1 .256-.105.34.34 0 0 1 .345.345c0 .105-.03.165-.12.255l-2.811 2.85 3.007 3.705c.075.09.105.165.105.27 0 .21-.15.345-.361.345-.135 0-.21-.045-.316-.165l-2.946-3.63-1.864 1.875v1.545c0 .225-.15.375-.361.375a.363.363 0 0 1-.376-.375zm10.9.465c-1.038 0-2.196-.405-2.977-.99a.396.396 0 0 1-.136-.285c0-.195.166-.36.361-.36.09 0 .18.03.24.075.797.57 1.64.87 2.556.87 1.038 0 1.85-.57 1.85-1.455v-.03c0-.9-.963-1.23-2.03-1.53-1.248-.36-2.631-.735-2.631-2.1v-.03c0-1.23 1.037-2.115 2.526-2.115.826 0 1.743.27 2.48.69.09.06.195.165.195.33 0 .195-.165.36-.36.36a.39.39 0 0 1-.21-.06c-.662-.39-1.399-.63-2.135-.63-1.053 0-1.744.57-1.744 1.335v.03c0 .855 1.037 1.17 2.134 1.485 1.233.345 2.526.795 2.526 2.145v.03c0 1.365-1.173 2.235-2.646 2.235z"/>
        <g opacity=".505">
            <ellipse cx="21.7" cy=".446" rx="1" ry="1"/>
            <ellipse cx="17.449" cy="2.902" rx="1" ry="1"/>
            <ellipse cx="13.199" cy="5.357" rx="1" ry="1"/>
            <ellipse cx="8.948" cy="7.813" rx="1" ry="1"/>
            <ellipse cx="4.698" cy="10.268" rx="1" ry="1"/>
            <ellipse cx="21.7" cy="5.357" rx="1" ry="1"/>
            <ellipse cx="17.449" cy="7.813" rx="1" ry="1"/>
            <ellipse cx="13.199" cy="10.268" rx="1" ry="1"/>
            <ellipse cx="8.948" cy="12.723" rx="1" ry="1"/>
            <ellipse cx="4.698" cy="15.179" rx="1" ry="1"/>
            <ellipse cx="21.7" cy="10.268" rx="1" ry="1"/>
            <ellipse cx="17.449" cy="12.054" rx="1" ry="1"/>
            <ellipse cx="4.698" cy="20.089" rx="1" ry="1"/>
            <ellipse cx="21.7" cy="14.732" rx="1" ry="1"/>
            <ellipse cx="21.7" cy="18.973" rx="1" ry="1"/>
            <ellipse cx="4.698" cy="25" rx="1" ry="1"/>
            <ellipse cx="13.199" cy="25" rx="1" ry="1"/>
            <ellipse cx="8.948" cy="27.455" rx="1" ry="1"/>
            <ellipse cx="4.698" cy="29.911" rx="1" ry="1"/>
            <ellipse cx="17.673" cy="27.455" rx="1" ry="1"/>
            <ellipse cx="13.199" cy="29.911" rx="1" ry="1"/>
            <ellipse cx="8.948" cy="32.366" rx="1" ry="1"/>
            <ellipse cx="13.199" cy="34.821" rx="1" ry="1"/>
            <ellipse cx="13.199" cy="39.732" rx="1" ry="1"/>
            <ellipse cx="8.948" cy="37.277" rx="1" ry="1"/>
            <ellipse cx="4.698" cy="34.821" rx="1" ry="1"/>
            <ellipse cx="38.701" cy="39.732" rx="1" ry="1"/>
            <ellipse cx="34.451" cy="42.188" rx="1" ry="1"/>
            <ellipse cx="30.2" cy="44.643" rx="1" ry="1"/>
            <ellipse cx="25.95" cy="47.098" rx="1" ry="1"/>
            <ellipse cx="25.95" cy="2.902" rx="1" ry="1" transform="matrix(-1 0 0 1 51.9 0)"/>
            <ellipse cx="30.2" cy="5.357" rx="1" ry="1" transform="matrix(-1 0 0 1 60.4 0)"/>
            <ellipse cx="34.451" cy="7.813" rx="1" ry="1" transform="matrix(-1 0 0 1 68.902 0)"/>
            <ellipse cx="38.701" cy="10.268" rx="1" ry="1" transform="matrix(-1 0 0 1 77.403 0)"/>
            <ellipse cx="25.95" cy="7.813" rx="1" ry="1" transform="matrix(-1 0 0 1 51.9 0)"/>
            <ellipse cx="34.451" cy="12.723" rx="1" ry="1" transform="matrix(-1 0 0 1 68.902 0)"/>
            <ellipse cx="38.701" cy="15.179" rx="1" ry="1" transform="matrix(-1 0 0 1 77.403 0)"/>
            <ellipse cx="34.451" cy="17.634" rx="1" ry="1" transform="matrix(-1 0 0 1 68.902 0)"/>
            <ellipse cx="38.701" cy="20.089" rx="1" ry="1" transform="matrix(-1 0 0 1 77.403 0)"/>
            <ellipse cx="30.2" cy="20.089" rx="1" ry="1" transform="matrix(-1 0 0 1 60.4 0)"/>
            <ellipse cx="34.451" cy="22.545" rx="1" ry="1" transform="matrix(-1 0 0 1 68.902 0)"/>
            <ellipse cx="38.701" cy="25" rx="1" ry="1" transform="matrix(-1 0 0 1 77.403 0)"/>
            <ellipse cx="30.2" cy="25" rx="1" ry="1" transform="matrix(-1 0 0 1 60.4 0)"/>
            <ellipse cx="34.451" cy="27.455" rx="1" ry="1" transform="matrix(-1 0 0 1 68.902 0)"/>
            <ellipse cx="38.701" cy="29.911" rx="1" ry="1" transform="matrix(-1 0 0 1 77.403 0)"/>
            <ellipse cx="25.726" cy="27.455" rx="1" ry="1" transform="matrix(-1 0 0 1 51.453 0)"/>
            <ellipse cx="16.331" cy="32.366" rx="1" ry="1"/>
            <ellipse cx="27.069" cy="32.366" rx="1" ry="1" transform="matrix(-1 0 0 1 54.137 0)"/>
            <ellipse cx="30.2" cy="29.911" rx="1" ry="1" transform="matrix(-1 0 0 1 60.4 0)"/>
            <ellipse cx="30.2" cy="34.821" rx="1" ry="1" transform="matrix(-1 0 0 1 60.4 0)"/>
            <ellipse cx="30.2" cy="39.732" rx="1" ry="1" transform="matrix(-1 0 0 1 60.4 0)"/>
            <ellipse cx="34.451" cy="32.366" rx="1" ry="1" transform="matrix(-1 0 0 1 68.902 0)"/>
            <ellipse cx="34.451" cy="37.277" rx="1" ry="1" transform="matrix(-1 0 0 1 68.902 0)"/>
            <ellipse cx="38.701" cy="34.821" rx="1" ry="1" transform="matrix(-1 0 0 1 77.403 0)"/>
            <ellipse cx="4.698" cy="39.732" rx="1" ry="1" transform="matrix(-1 0 0 1 9.396 0)"/>
            <ellipse cx="8.948" cy="42.188" rx="1" ry="1" transform="matrix(-1 0 0 1 17.897 0)"/>
            <ellipse cx="13.199" cy="44.643" rx="1" ry="1" transform="matrix(-1 0 0 1 26.397 0)"/>
            <ellipse cx="17.449" cy="47.098" rx="1" ry="1" transform="matrix(-1 0 0 1 34.898 0)"/>
            <ellipse cx="25.95" cy="42.188" rx="1" ry="1"/>
            <ellipse cx="17.449" cy="42.188" rx="1" ry="1" transform="matrix(-1 0 0 1 34.898 0)"/>
            <ellipse cx="21.7" cy="49.554" rx="1" ry="1"/>
            <ellipse cx=".447" cy="12.723" rx="1" ry="1"/>
            <ellipse cx=".447" cy="17.634" rx="1" ry="1"/>
            <ellipse cx="42.952" cy="17.634" rx="1" ry="1"/>
            <ellipse cx=".447" cy="22.545" rx="1" ry="1"/>
            <ellipse cx="42.952" cy="22.545" rx="1" ry="1"/>
            <ellipse cx=".447" cy="27.455" rx="1" ry="1"/>
            <ellipse cx="42.952" cy="27.455" rx="1" ry="1"/>
            <ellipse cx=".447" cy="32.366" rx="1" ry="1"/>
            <ellipse cx="42.952" cy="32.366" rx="1" ry="1"/>
            <ellipse cx=".447" cy="37.277" rx="1" ry="1"/>
            <ellipse cx="42.952" cy="12.723" rx="1" ry="1"/>
            <ellipse cx="42.952" cy="37.277" rx="1" ry="1"/>
        </g>
        <g transform="translate(7.606 8.705)">
            <ellipse cx="2.684" cy="11.384" rx="2.684" ry="2.679"/>
            <ellipse cx="5.145" cy="6.92" rx="1.342" ry="1.339"/>
            <ellipse cx="8.725" cy="7.589" rx="1.342" ry="1.339"/>
            <ellipse cx="10.738" cy="11.384" rx="1.342" ry="1.339"/>
            <ellipse cx="12.528" cy="15.179" rx="1.342" ry="1.339"/>
            <ellipse cx="14.094" cy="18.973" rx="1.342" ry="1.339"/>
            <ellipse cx="15.436" cy="22.768" rx="1.342" ry="1.339"/>
            <ellipse cx="15.883" cy="26.563" rx="1.342" ry="1.339"/>
            <ellipse cx="16.107" cy="30.357" rx="1.342" ry="1.339"/>
            <ellipse cx="14.094" cy="34.152" rx="1.342" ry="1.339"/>
            <ellipse cx="12.08" cy="30.357" rx="1.342" ry="1.339"/>
            <ellipse cx="12.304" cy="26.563" rx="1.342" ry="1.339"/>
            <ellipse cx="12.751" cy="22.768" rx="1.342" ry="1.339"/>
            <ellipse cx="15.659" cy="15.179" rx="1.342" ry="1.339"/>
            <ellipse cx="17.449" cy="11.384" rx="1.342" ry="1.339"/>
            <path d="M19.463 8.929a1.34 1.34 0 0 0 0-2.679 1.34 1.34 0 0 0 0 2.679z"/>
            <path fill-rule="nonzero" d="M21.7 4.018a1.34 1.34 0 0 0 0-2.679 1.34 1.34 0 0 0 0 2.679zm0 1.34a2.682 2.682 0 0 1-2.685-2.68A2.682 2.682 0 0 1 21.7 0c1.482 0 2.684 1.2 2.684 2.679A2.682 2.682 0 0 1 21.7 5.357z"/>
        </g>
    </g>
</svg>
